<svg xmlns="http://www.w3.org/2000/svg" viewBox="0 0 1280 720" role="img" aria-labelledby="title desc">
  <title id="title">Complete Web Development Bootcamp</title>
  <desc id="desc">StudyNotion course thumbnail with browser and code illustration</desc>
  <defs><linearGradient id="g" x1="0" y1="0" x2="1" y2="1"><stop stop-color="#07152f"/><stop offset="1" stop-color="#155e75"/></linearGradient></defs>
  <rect width="1280" height="720" rx="36" fill="url(#g)"/>
  <circle cx="1080" cy="90" r="250" fill="#22d3ee" opacity=".12"/><circle cx="170" cy="680" r="270" fill="#facc15" opacity=".12"/>
  <g transform="translate(735 150)"><rect width="420" height="350" rx="24" fill="#0f172a" stroke="#67e8f9" stroke-width="5"/><rect width="420" height="54" rx="24" fill="#164e63"/><circle cx="34" cy="27" r="8" fill="#fb7185"/><circle cx="61" cy="27" r="8" fill="#facc15"/><circle cx="88" cy="27" r="8" fill="#4ade80"/><path d="M88 150l-55 40 55 40M332 150l55 40-55 40M250 105l-80 170" fill="none" stroke="#67e8f9" stroke-width="18" stroke-linecap="round" stroke-linejoin="round"/></g>
  <text x="82" y="110" fill="#facc15" font-family="Inter,Segoe UI,sans-serif" font-size="28" font-weight="700" letter-spacing="5">STUDYNOTION • CAREER TRACK</text>
  <text x="82" y="230" fill="white" font-family="Inter,Segoe UI,sans-serif" font-size="70" font-weight="800">Complete Web</text><text x="82" y="310" fill="white" font-family="Inter,Segoe UI,sans-serif" font-size="70" font-weight="800">Development</text><text x="82" y="390" fill="#67e8f9" font-family="Inter,Segoe UI,sans-serif" font-size="70" font-weight="800">Bootcamp 2026</text>
  <text x="82" y="494" fill="#cbd5e1" font-family="Inter,Segoe UI,sans-serif" font-size="30">HTML • CSS • JavaScript • Node.js</text><rect x="82" y="550" width="410" height="68" rx="34" fill="#facc15"/><text x="287" y="594" text-anchor="middle" fill="#111827" font-family="Inter,Segoe UI,sans-serif" font-size="28" font-weight="800">PROJECT-BASED</text>
</svg>
