<svg xmlns="http://www.w3.org/2000/svg" viewBox="0 0 1280 720" role="img" aria-labelledby="title desc">
  <title id="title">Cybersecurity Essentials for Developers</title><desc id="desc">StudyNotion cybersecurity course thumbnail</desc>
  <defs><linearGradient id="g" x1="0" y1="1" x2="1" y2="0"><stop stop-color="#020617"/><stop offset="1" stop-color="#3f0d20"/></linearGradient></defs><rect width="1280" height="720" rx="36" fill="url(#g)"/>
  <g transform="translate(850 125)"><path d="M165 0l165 62v135c0 115-70 210-165 265C70 407 0 312 0 197V62z" fill="#be123c" stroke="#fda4af" stroke-width="10"/><rect x="82" y="190" width="166" height="150" rx="22" fill="#0f172a" stroke="#fecdd3" stroke-width="8"/><path d="M118 190v-45c0-63 94-63 94 0v45" fill="none" stroke="#fecdd3" stroke-width="18"/><circle cx="165" cy="260" r="18" fill="#facc15"/><path d="M165 278v30" stroke="#facc15" stroke-width="14" stroke-linecap="round"/></g>
  <text x="76" y="108" fill="#fda4af" font-family="Inter,Segoe UI,sans-serif" font-size="28" font-weight="700" letter-spacing="5">STUDYNOTION • SECURITY TRACK</text><text x="76" y="238" fill="white" font-family="Inter,Segoe UI,sans-serif" font-size="76" font-weight="850">Cybersecurity</text><text x="76" y="330" fill="#facc15" font-family="Inter,Segoe UI,sans-serif" font-size="70" font-weight="850">for Developers</text><text x="76" y="438" fill="#ffe4e6" font-family="Inter,Segoe UI,sans-serif" font-size="29">OWASP • APIs • Threat Modeling</text><rect x="76" y="515" width="430" height="70" rx="35" fill="#fb7185"/><text x="291" y="560" text-anchor="middle" fill="#4c0519" font-family="Inter,Segoe UI,sans-serif" font-size="27" font-weight="850">BUILD SECURELY</text>
</svg>
