<svg xmlns="http://www.w3.org/2000/svg" viewBox="0 0 1280 720" role="img" aria-labelledby="title desc">
  <title id="title">DevOps with Docker CI/CD and AWS</title><desc id="desc">StudyNotion DevOps course thumbnail</desc>
  <defs><linearGradient id="g" x1="0" y1="0" x2="1" y2="1"><stop stop-color="#172554"/><stop offset="1" stop-color="#7c2d12"/></linearGradient></defs><rect width="1280" height="720" rx="36" fill="url(#g)"/>
  <g transform="translate(780 165)" fill="none" stroke="#fdba74" stroke-width="16" stroke-linecap="round"><path d="M90 180c20-120 190-135 240-40 105-15 150 135 45 185H95c-115-20-110-170-5-145z"/><path d="M55 405h360"/><path d="M115 365l-55 40 55 40M355 365l55 40-55 40"/><circle cx="235" cy="405" r="56" fill="#facc15" stroke="#fef08a"/></g>
  <text x="76" y="108" fill="#fdba74" font-family="Inter,Segoe UI,sans-serif" font-size="28" font-weight="700" letter-spacing="5">STUDYNOTION • CLOUD TRACK</text><text x="76" y="238" fill="white" font-family="Inter,Segoe UI,sans-serif" font-size="88" font-weight="850">DevOps</text><text x="76" y="335" fill="#facc15" font-family="Inter,Segoe UI,sans-serif" font-size="66" font-weight="850">Docker • CI/CD • AWS</text><text x="76" y="448" fill="#ffedd5" font-family="Inter,Segoe UI,sans-serif" font-size="29">Containers • Pipelines • Reliability</text><rect x="76" y="525" width="410" height="70" rx="35" fill="#fb923c"/><text x="281" y="570" text-anchor="middle" fill="#431407" font-family="Inter,Segoe UI,sans-serif" font-size="27" font-weight="850">AUTOMATE DELIVERY</text>
</svg>
