<svg xmlns="http://www.w3.org/2000/svg" viewBox="0 0 1280 720" role="img" aria-labelledby="title desc">
  <title id="title">Data Structures and Algorithms in JavaScript</title><desc id="desc">StudyNotion algorithms course thumbnail</desc>
  <defs><linearGradient id="g" x1="0" y1="1" x2="1" y2="0"><stop stop-color="#1e1b4b"/><stop offset="1" stop-color="#701a75"/></linearGradient></defs><rect width="1280" height="720" rx="36" fill="url(#g)"/>
  <g stroke="#f0abfc" stroke-width="8" fill="#312e81"><path d="M940 175L800 315m140-140l140 140M800 315l-90 145m90-145l90 145m190-145l-90 145m90-145l90 145"/><g fill="#facc15" stroke="#fef08a"><circle cx="940" cy="175" r="38"/><circle cx="800" cy="315" r="34"/><circle cx="1080" cy="315" r="34"/><circle cx="710" cy="460" r="30"/><circle cx="890" cy="460" r="30"/><circle cx="990" cy="460" r="30"/><circle cx="1170" cy="460" r="30"/></g></g>
  <text x="76" y="105" fill="#f0abfc" font-family="Inter,Segoe UI,sans-serif" font-size="28" font-weight="700" letter-spacing="4">STUDYNOTION • INTERVIEW TRACK</text><text x="76" y="225" fill="white" font-family="Inter,Segoe UI,sans-serif" font-size="68" font-weight="850">Data Structures</text><text x="76" y="305" fill="white" font-family="Inter,Segoe UI,sans-serif" font-size="68" font-weight="850">&amp; Algorithms</text><text x="76" y="385" fill="#facc15" font-family="Inter,Segoe UI,sans-serif" font-size="58" font-weight="850">in JavaScript</text>
  <text x="76" y="486" fill="#e2e8f0" font-family="Inter,Segoe UI,sans-serif" font-size="29">Patterns • Complexity • 100+ Problems</text><rect x="76" y="548" width="385" height="68" rx="34" fill="#facc15"/><text x="268" y="592" text-anchor="middle" fill="#312e81" font-family="Inter,Segoe UI,sans-serif" font-size="27" font-weight="850">INTERVIEW READY</text>
</svg>
