<svg xmlns="http://www.w3.org/2000/svg" viewBox="0 0 1280 720" role="img" aria-labelledby="title desc">
  <title id="title">Machine Learning Foundations</title><desc id="desc">StudyNotion machine learning course thumbnail</desc>
  <defs><linearGradient id="g" x1="0" y1="1" x2="1" y2="0"><stop stop-color="#172554"/><stop offset="1" stop-color="#0c4a6e"/></linearGradient></defs><rect width="1280" height="720" rx="36" fill="url(#g)"/>
  <g transform="translate(930 350)" stroke="#7dd3fc" stroke-width="7"><g fill="#facc15"><circle cy="-170" r="28"/><circle cx="-150" cy="-80" r="28"/><circle cx="150" cy="-80" r="28"/><circle cx="-190" cy="90" r="28"/><circle r="34"/><circle cx="190" cy="90" r="28"/><circle cx="-100" cy="190" r="28"/><circle cx="100" cy="190" r="28"/></g><g fill="none"><path d="M0-142L-135-92M0-142l135 50M-137-60L-178 66M-125-62L-22-18M125-62L22-18M137-60l41 126M-164 100l135-75M164 100L29 25M-170 110l55 62M170 110l-55 62M0 34l-83 137M0 34l83 137"/></g></g>
  <text x="78" y="108" fill="#7dd3fc" font-family="Inter,Segoe UI,sans-serif" font-size="28" font-weight="700" letter-spacing="5">STUDYNOTION • AI TRACK</text><text x="78" y="250" fill="white" font-family="Inter,Segoe UI,sans-serif" font-size="78" font-weight="850">Machine Learning</text><text x="78" y="345" fill="#facc15" font-family="Inter,Segoe UI,sans-serif" font-size="78" font-weight="850">Foundations</text><text x="78" y="455" fill="#dbeafe" font-family="Inter,Segoe UI,sans-serif" font-size="29">Models • Evaluation • Responsible AI</text><rect x="78" y="525" width="440" height="70" rx="35" fill="#7dd3fc"/><text x="298" y="570" text-anchor="middle" fill="#172554" font-family="Inter,Segoe UI,sans-serif" font-size="27" font-weight="850">FROM DATA TO PRODUCT</text>
</svg>
